<?xml version="1.0" standalone="no"?>
<!DOCTYPE svg PUBLIC "-//W3C//DTD SVG 20010904//EN"
 "http://www.w3.org/TR/2001/REC-SVG-20010904/DTD/svg10.dtd">
<svg version="1.0" xmlns="http://www.w3.org/2000/svg"
 width="777.000000pt" height="386.000000pt" viewBox="0 0 777.000000 386.000000"
 preserveAspectRatio="xMidYMid meet">

<g transform="translate(0.000000,386.000000) scale(0.100000,-0.100000)"
fill="#000000" stroke="none">
<path d="M626 3495 c-46 -16 -101 -67 -125 -115 -57 -112 -11 -254 101 -311
l38 -19 0 -790 0 -789 -21 -6 c-33 -11 -98 -75 -121 -119 -13 -25 -20 -60 -21
-96 -1 -108 65 -195 172 -227 101 -29 212 17 261 109 l24 46 360 5 c327 4 369
6 444 26 416 106 654 488 654 1051 0 548 -246 942 -657 1052 -73 19 -112 21
-441 26 l-361 4 -12 34 c-15 43 -89 107 -139 122 -51 16 -108 15 -156 -3z
m1032 -301 c263 -54 443 -228 542 -520 49 -145 63 -260 57 -473 -4 -155 -9
-202 -30 -281 -84 -321 -249 -510 -512 -586 -51 -14 -117 -18 -420 -21 l-360
-5 -13 35 c-15 41 -90 114 -126 123 l-26 6 0 788 0 788 45 22 c48 23 102 80
111 118 l6 22 325 0 c257 0 340 -3 401 -16z"/>
<path d="M2846 3495 c-94 -33 -155 -118 -156 -218 0 -93 44 -168 121 -208 l39
-19 0 -911 0 -910 25 -24 c31 -31 49 -31 80 0 l25 24 0 911 c0 600 3 910 10
910 9 0 300 -431 549 -812 l83 -128 -16 -40 c-35 -89 -15 -174 58 -246 41 -40
64 -54 105 -64 181 -43 339 135 273 308 l-21 53 317 477 317 477 5 -932 c3
-601 9 -935 15 -942 6 -5 22 -13 37 -16 21 -5 33 -1 52 19 l26 25 0 1031 0
1031 -25 24 c-13 14 -29 25 -35 25 -37 0 -47 -13 -600 -838 -182 -273 -205
-302 -224 -295 -27 10 -133 10 -166 0 -24 -7 -39 14 -332 452 l-308 459 27 48
c34 61 36 149 5 211 -54 105 -178 157 -286 118z"/>
<path d="M6125 3359 c-307 -42 -561 -209 -723 -476 -47 -78 -88 -180 -119
-300 -26 -102 -28 -120 -28 -318 0 -220 5 -259 52 -410 103 -327 355 -576 674
-665 167 -46 397 -48 564 -5 373 96 635 384 727 799 33 146 32 407 0 554 -96
432 -374 722 -777 808 -88 19 -279 26 -370 13z m338 -133 c341 -66 593 -325
679 -699 31 -132 31 -402 0 -534 -81 -351 -299 -593 -619 -685 -68 -20 -100
-23 -253 -22 -161 0 -182 2 -263 27 -236 73 -406 216 -517 437 -78 155 -110
303 -110 510 0 207 32 355 110 510 123 244 320 396 590 456 78 17 293 17 383
0z"/>
<path d="M5172 933 c3 -46 4 -48 33 -48 29 0 30 2 33 48 l3 47 -36 0 -36 0 3
-47z"/>
<path d="M4680 950 c0 -17 7 -20 40 -20 l40 0 0 -116 0 -116 -42 36 c-148 127
-361 24 -363 -174 0 -87 32 -152 97 -196 85 -58 178 -54 263 11 l45 35 0 -36
0 -35 63 3 c47 2 62 7 62 18 0 10 -13 17 -40 20 l-40 5 -3 293 -2 292 -60 0
c-53 0 -60 -2 -60 -20z m-58 -210 c134 -38 182 -215 85 -318 -72 -78 -208 -68
-276 19 -73 94 -27 255 84 294 49 17 60 18 107 5z"/>
<path d="M5712 918 c-7 -7 -12 -39 -12 -75 l0 -63 -37 0 c-46 0 -68 -13 -60
-34 5 -11 19 -16 52 -16 l45 0 0 -145 c0 -165 10 -203 61 -234 46 -28 97 -34
170 -21 65 12 139 44 139 60 0 20 -21 20 -79 0 -36 -12 -87 -20 -126 -20 -57
0 -69 3 -90 25 -24 24 -25 28 -25 180 l0 155 120 0 c101 0 122 3 127 16 10 27
-17 34 -134 34 l-113 0 0 59 c0 84 -11 106 -38 79z"/>
<path d="M3889 776 c-167 -59 -207 -260 -77 -382 67 -64 146 -84 244 -64 95
20 171 67 147 91 -6 6 -27 1 -61 -17 -55 -28 -152 -42 -217 -30 -43 8 -112 68
-132 113 -27 66 -35 63 202 63 171 0 215 3 215 13 0 7 -7 37 -16 66 -37 125
-178 193 -305 147z m180 -56 c43 -21 76 -61 86 -103 l7 -27 -191 0 c-134 0
-191 3 -191 11 0 6 10 29 22 51 51 90 167 119 267 68z"/>
<path d="M6371 776 c-47 -17 -108 -71 -131 -116 -38 -74 -22 -200 33 -258 47
-51 106 -76 176 -76 98 1 172 46 215 130 74 149 -42 335 -209 333 -27 0 -65
-6 -84 -13z m132 -37 c43 -12 101 -59 123 -100 18 -35 18 -120 0 -162 -58
-140 -276 -144 -346 -7 -52 102 -2 227 106 265 48 17 68 18 117 4z"/>
<path d="M7161 769 c-25 -11 -64 -35 -87 -54 -23 -19 -45 -35 -48 -35 -3 0 -6
21 -8 48 l-3 47 -60 3 c-66 2 -91 -7 -82 -32 5 -12 20 -16 57 -16 l50 0 0
-175 0 -175 -65 0 c-58 0 -65 -2 -65 -20 0 -19 7 -20 190 -20 183 0 190 1 190
20 0 19 -7 20 -105 20 l-105 0 0 119 0 118 55 44 c104 83 144 95 197 58 21
-15 33 -18 40 -11 18 18 1 42 -44 62 -53 24 -53 24 -107 -1z"/>
<path d="M5057 769 c-34 -20 -1 -39 69 -39 l64 0 0 -175 0 -174 -92 -3 c-75
-2 -93 -6 -93 -18 0 -13 31 -15 213 -18 207 -2 212 -2 212 18 0 19 -6 20 -95
20 l-95 0 -2 197 -3 198 -80 2 c-44 2 -88 -2 -98 -8z"/>
</g>
</svg>
