<?xml version="1.0" standalone="no"?>
<!DOCTYPE svg PUBLIC "-//W3C//DTD SVG 20010904//EN"
 "http://www.w3.org/TR/2001/REC-SVG-20010904/DTD/svg10.dtd">
<svg version="1.0" xmlns="http://www.w3.org/2000/svg"
 width="1261.000000pt" height="386.000000pt" viewBox="0 0 1261.000000 386.000000"
 preserveAspectRatio="xMidYMid meet">

<g transform="translate(0.000000,386.000000) scale(0.100000,-0.100000)"
fill="#000000" stroke="none">
<path d="M626 3495 c-46 -16 -101 -67 -125 -115 -57 -112 -11 -254 101 -311
l38 -19 0 -790 0 -789 -21 -6 c-33 -11 -98 -75 -121 -119 -13 -25 -20 -60 -21
-96 -1 -108 65 -195 172 -227 101 -29 212 17 261 109 l24 46 360 5 c327 4 369
6 444 26 416 106 654 488 654 1051 0 548 -246 942 -657 1052 -73 19 -112 21
-441 26 l-361 4 -12 34 c-15 43 -89 107 -139 122 -51 16 -108 15 -156 -3z
m1032 -301 c263 -54 443 -228 542 -520 49 -145 63 -260 57 -473 -4 -155 -9
-202 -30 -281 -84 -321 -249 -510 -512 -586 -51 -14 -117 -18 -420 -21 l-360
-5 -13 35 c-15 41 -90 114 -126 123 l-26 6 0 788 0 788 45 22 c48 23 102 80
111 118 l6 22 325 0 c257 0 340 -3 401 -16z"/>
<path d="M2846 3495 c-94 -33 -155 -118 -156 -218 0 -93 44 -168 121 -208 l39
-19 0 -911 0 -910 25 -24 c31 -31 49 -31 80 0 l25 24 0 911 c0 600 3 910 10
910 9 0 300 -431 549 -812 l83 -128 -16 -40 c-35 -89 -15 -174 58 -246 41 -40
64 -54 105 -64 181 -43 339 135 273 308 l-21 53 317 477 317 477 5 -932 c3
-601 9 -935 15 -942 6 -5 22 -13 37 -16 21 -5 33 -1 52 19 l26 25 0 1031 0
1031 -25 24 c-13 14 -29 25 -35 25 -37 0 -47 -13 -600 -838 -182 -273 -205
-302 -224 -295 -27 10 -133 10 -166 0 -24 -7 -39 14 -332 452 l-308 459 27 48
c34 61 36 149 5 211 -54 105 -178 157 -286 118z"/>
<path d="M6125 3359 c-307 -42 -561 -209 -723 -476 -47 -78 -88 -180 -119
-300 -26 -102 -28 -120 -28 -318 0 -220 5 -259 52 -410 103 -327 355 -576 674
-665 167 -46 397 -48 564 -5 373 96 635 384 727 799 33 146 32 407 0 554 -96
432 -374 722 -777 808 -88 19 -279 26 -370 13z m338 -133 c341 -66 593 -325
679 -699 31 -132 31 -402 0 -534 -81 -351 -299 -593 -619 -685 -68 -20 -100
-23 -253 -22 -161 0 -182 2 -263 27 -236 73 -406 216 -517 437 -78 155 -110
303 -110 510 0 207 32 355 110 510 123 244 320 396 590 456 78 17 293 17 383
0z"/>
<path d="M9412 1933 l3 -68 35 0 35 0 3 68 3 67 -41 0 -41 0 3 -67z"/>
<path d="M8795 1966 c-30 -22 -4 -46 51 -46 l44 0 0 -146 0 -147 -48 45 c-139
130 -351 88 -433 -87 -51 -107 -36 -239 37 -324 105 -122 278 -135 398 -30
l46 41 0 -47 0 -46 78 3 c71 3 77 5 80 25 3 20 -2 22 -45 25 l-48 3 -5 370 -5
370 -65 3 c-45 2 -71 -2 -85 -12z m-39 -295 c130 -59 176 -243 89 -361 -135
-184 -415 -83 -415 149 0 86 62 181 140 215 48 21 136 20 186 -3z"/>
<path d="M10087 1913 c-4 -3 -7 -46 -7 -94 l0 -88 -62 -3 c-55 -3 -63 -6 -66
-24 -4 -25 19 -34 86 -34 l42 0 0 -190 c0 -219 6 -244 69 -286 74 -48 221 -44
339 11 87 40 62 85 -27 46 -117 -50 -244 -48 -297 4 -24 24 -24 27 -24 220 l0
195 143 0 c151 0 187 9 174 44 -6 14 -27 16 -162 16 l-155 0 0 73 c0 39 -3 82
-6 95 -6 21 -33 30 -47 15z"/>
<path d="M7792 1732 c-67 -24 -119 -66 -156 -126 -25 -40 -30 -60 -34 -129 -4
-78 -2 -86 30 -147 57 -110 160 -170 293 -170 121 0 286 71 269 115 -8 21 -21
19 -86 -14 -193 -98 -392 -37 -444 135 l-13 44 269 0 270 0 0 38 c0 98 -69
202 -162 242 -73 31 -167 36 -236 12z m239 -77 c45 -31 92 -92 104 -132 l6
-23 -240 0 c-268 0 -258 -3 -222 68 43 84 120 124 233 120 66 -3 82 -7 119
-33z"/>
<path d="M10928 1735 c-59 -19 -149 -100 -178 -161 -30 -62 -31 -171 -3 -235
25 -57 87 -120 145 -150 60 -31 160 -37 229 -14 72 24 159 110 182 179 64 188
-66 382 -263 392 -40 2 -83 -2 -112 -11z m190 -61 c130 -54 185 -212 116 -334
-58 -102 -167 -148 -274 -117 -214 63 -244 351 -46 443 61 28 148 32 204 8z"/>
<path d="M11905 1720 c-22 -11 -68 -42 -102 -70 l-63 -51 0 66 0 65 -79 0
c-88 0 -111 -5 -111 -26 0 -20 34 -34 84 -34 l46 0 0 -220 0 -219 -77 -3 c-70
-3 -78 -5 -78 -23 0 -19 7 -20 240 -20 233 0 240 1 240 20 0 19 -8 20 -130 25
l-130 5 -3 146 -3 146 68 57 c83 71 162 111 201 101 15 -3 39 -18 55 -33 25
-24 29 -25 43 -10 21 21 6 49 -40 77 -43 27 -108 27 -161 1z"/>
<path d="M9257 1723 c-15 -14 -6 -41 16 -47 12 -3 55 -6 95 -6 l72 0 -2 -217
-3 -218 -115 -3 c-119 -3 -142 -10 -120 -37 11 -13 47 -15 274 -13 253 3 261
4 261 23 0 19 -8 20 -120 25 l-120 5 -3 248 -2 247 -114 0 c-62 0 -116 -3
-119 -7z"/>
</g>
</svg>
